<svg width="750" height="750" viewBox="0 0 750 750" fill="none" xmlns="http://www.w3.org/2000/svg">
<path d="M0 375C-7.33818e-07 424.246 9.69966 473.009 28.5452 518.506C47.3907 564.003 75.013 605.343 109.835 640.165C144.657 674.987 185.997 702.609 231.494 721.455C276.991 740.3 325.754 750 375 750C424.246 750 473.009 740.3 518.506 721.455C564.003 702.609 605.343 674.987 640.165 640.165C674.987 605.343 702.609 564.003 721.455 518.506C740.3 473.009 750 424.246 750 375C750 325.754 740.3 276.991 721.455 231.494C702.609 185.997 674.987 144.657 640.165 109.835C605.343 75.013 564.003 47.3907 518.506 28.5452C473.009 9.69965 424.246 -7.62939e-06 375 -7.62939e-06C325.754 -7.62939e-06 276.991 9.69965 231.494 28.5452C185.997 47.3907 144.657 75.013 109.835 109.835C75.013 144.657 47.3907 185.997 28.5452 231.494C9.69966 276.991 -7.33818e-07 325.754 0 375Z" fill="#FFF0C2"/>
<path d="M265 525C265 515 275 505 285 505H585C595 505 605 515 605 525V560C605 570 595 580 585 580H285C275 580 265 570 265 560V525ZM265 415C265 405 275 395 285 395H585C595 395 605 405 605 415V450C605 460 595 470 585 470H285C275 470 265 460 265 450V415ZM300 300C300 290 310 280 320 280H620C630 280 640 290 640 300V335C640 345 630 355 620 355H320C310 355 300 345 300 335V300ZM225 190C225 175 235 170 245 170H545C555 170 565 180 565 190V225C565 235 555 245 545 245H245C235 245 225 235 225 225V190Z" fill="#FFE085"/>
<path d="M130 415C130 460.087 147.911 503.327 179.792 535.208C211.673 567.089 254.913 585 300 585C345.087 585 388.327 567.089 420.208 535.208C452.089 503.327 470 460.087 470 415C470 369.913 452.089 326.673 420.208 294.792C388.327 262.911 345.087 245 300 245C254.913 245 211.673 262.911 179.792 294.792C147.911 326.673 130 369.913 130 415Z" fill="#F3C02C"/>
<path d="M370.975 350.204L379.924 336.456C383.094 331.592 383.342 325.384 380.573 320.282C377.811 315.177 372.471 312 366.668 312H247.01C241.657 312 236.67 314.704 233.747 319.188L220.076 340.189C216.905 345.053 216.658 351.261 219.427 356.362C221.485 360.167 224.977 362.901 229.025 364.048L220.076 377.796C216.905 382.66 216.658 388.868 219.427 393.97C221.312 397.456 224.402 400.042 228.018 401.331C225.731 404.075 224.353 407.607 224.353 411.46V430.387C224.353 434.451 225.916 438.357 228.716 441.298L297.089 513.089C300.074 516.226 304.215 518 308.547 518H338.825C347.564 518 354.646 510.917 354.646 502.178V494.854C354.646 490.791 353.083 486.885 350.283 483.943L306.452 437.922C322.039 430.462 334.406 417.789 340.741 402.251H352.99C358.342 402.251 363.33 399.548 366.253 395.063L379.924 374.063C383.094 369.199 383.342 362.991 380.573 357.889C378.515 354.085 375.023 351.35 370.975 350.204ZM327.651 365.429H366.668L352.99 386.43H328.893C324.9 410.048 303.115 428.299 276.446 429.355L338.825 494.854V502.178H308.547L240.174 430.388V411.461H264.679C284.333 411.461 300.773 400.772 305.025 386.43H233.332L247.01 365.429H302.225C297.67 357.812 289.432 351.811 279.296 348.822H233.332L247.01 327.822H366.668L352.99 348.822H318.986C322.904 353.764 325.877 359.369 327.651 365.429Z" fill="white"/>
</svg>
