<svg clip-rule="evenodd" fill-rule="evenodd" height="512" image-rendering="optimizeQuality" shape-rendering="geometricPrecision" text-rendering="geometricPrecision" viewBox="0 0 1.70666 1.70666" width="512" xmlns="http://www.w3.org/2000/svg"><g id="Layer_x0020_1"><g id="_446407600"><g><path id="_446410456" d="m1.33435.402469c.0313583 0 .0569921-.0968071-.00083071-.163961-.017185-.0199646-.0474921.00614173-.0303189.0260984.0625157.0726417-.0130945.114528.0208071.13498.00322835.00194488.00679921.00288189.0103425.00288189z" fill="#c09059"/><path id="_446410816" d="m1.40876.429453c.117906 0 .117874-.110594 0-.110594s-.117906.110594 0 .110594z" fill="#7ed44b"/><path id="_446409904" d="m1.32459.632394c.0194331-.0168819.0459094-.0567047.119272-.0818543.00984646-.00337795.0154685-.0137402.0129173-.0238307-.0380276-.150433-.159339-.220469-.308634-.178185-.01.00283465-.0161654.012874-.0141772.0230787.00033465.00173622.0325118.175461-.0901614.230528-.0240118.0107835-.00766535.0472677.0163858.0365039.00326378-.00146457.00641732-.00300394.00950787-.00459449.00305906.00620472.00925984.0106378.0166575.0111024l.218102.0136693c.011.00068898.0204843-.00766929.0211732-.0186693.00016929-.0027126-.00020866-.00532677-.00104331-.00774803z" fill="#fadaa8"/><g fill="#c09059"><path id="_446409856" d="m1.21357.521323c.0135748 0 .0321339-.0238386.047248-.0389449.018626-.018622-.00965354-.0469094-.0282953-.0282913-.0217087.0216772-.0520551.0424528-.0331102.0613858.00390551.00390157.00903543.00585039.0141575.00585039z"/><path id="_446410312" d="m1.27824.575858c.0135709 0 .0321063-.0238465.047248-.0389724.0186299-.0186142-.00966929-.0469016-.0282756-.0282795-.0216457.0216693-.0520866.0424724-.0331102.0613898.00392126.00390551.00902756.0058622.0141378.0058622z"/></g></g><path id="_446409760" d="m.719429.704843-.274398.0735236c-.0310433.0083189-.0637126-.00293307-.0832205-.0286496-.00183071-.00242126-.00233071-.00559843-.00131102-.00846063l.0276299-.0779724-.0425787.0124606c-.00485827.00140157-.00992913-.00142126-.0112362-.00631102l-.0888504-.331567c-.0012874-.00480709.00157087-.00975197.00637402-.0110394l.0860118-.0230472c.00480315-.0012874.00975197.00156693.0110394.00637402l.0357874.133563.220776-.0591575-.0357913-.133563c-.0012874-.00480709.0015748-.00975197.00637795-.0110394l.0860197-.0230472c.00480315-.0012874.00975197.00156693.0110394.00637008l.0666969.248921c.00068504.00255118.0002126.00526378-.00128346.00744488l-.0438937.0638268.0567953-.00130315c.00416142-.00009843.00784252.00266535.00891732.0066811l.0155827.0581457c.0114016.0425472-.013937.0864449-.0564843.0978465z" fill="#cfe6f0"/><path id="_446409784" d="m1.636 1.05728h-1.56121c-.0144921 0-.0242008-.0151614-.0181811-.0283346.0274016-.0598425.171728-.359898.322827-.390063.0125827-.00252756.13835.0517795.159827.0603543.0316063-.0608819.145756-.267067.26161-.30872.00630709-.00229134.0133189-.00122047.0187087.00277953l.241724.179795c.0138268.00380709.286594-.0926496.389732.230209.049315.0088622.21528.0523701.204953.235102-.00061417.0106024-.00938189.018878-.0199921.018878z" fill="#b87e72"/><path id="_446410048" d="m1.6302 1.20153h-.476701c-.0263268 0-.0263189-.0399961 0-.0399961h.476701c.0263307 0 .0263189.0399961 0 .0399961zm-.575567 0h-.164217c-.0263268 0-.0263189-.0399961 0-.0399961h.164217c.0263268 0 .0263268.0399961 0 .0399961zm-.263055 0h-.508185c-.0263228 0-.0263228-.0399961 0-.0399961h.508185c.0263228 0 .0263228.0399961 0 .0399961zm-.607039 0h-.103508c-.0263228 0-.0263228-.0399961 0-.0399961h.103508c.0263189 0 .0263346.0399961 0 .0399961z" fill="#7b6d79"/><path id="_446410384" d="m1.52669 1.3458h-.0896811c-.0263268 0-.0263189-.04 0-.04h.0896811c.0263268 0 .0263268.04 0 .04zm-.175323 0h-.440272c-.0263268 0-.0263189-.04 0-.04h.440272c.0263228 0 .0263228.04 0 .04zm-.525906 0h-.142268c-.0263268 0-.0263268-.04 0-.04h.142268c.0263268 0 .0263268.04 0 .04zm-.227917 0h-.413008c-.0263228 0-.0263228-.04 0-.04h.413008c.0263228 0 .0263228.04 0 .04z" fill="#7b6d79"/><path id="_446410024" d="m1.43701 1.49006h-.357811c-.0263307 0-.0263189-.04 0-.04h.357811c.0263268 0 .0263307.04 0 .04zm-.432 0h-.12326c-.0263307 0-.0263189-.04 0-.04h.12326c.0263228 0 .0263268.04 0 .04zm-.197449 0h-.381453c-.0263228 0-.0263228-.04 0-.04h.381453c.0263228 0 .0263268.04 0 .04zm-.455642 0h-.0776929c-.0263228 0-.0263228-.04 0-.04h.0776929c.0263228 0 .0263228.04 0 .04z" fill="#7b6d79"/><path id="_446410096" d="m1.23251.811925c-.0960512 0-.0960945-.14598 0-.14598.0960984 0 .0960787.14598 0 .14598z" fill="#c5978d"/><path id="_446409520" d="m1.46091.967646c-.00456693 0-.00916535-.00155512-.0129291-.00476772-.0880039-.074878-.150937-.00145276-.165547-.040126-.00390551-.0103346.00129134-.0218701.011626-.0257756.0844134-.0318583.213339.0267598.182114.0635906-.00394488.00467323-.00959843.00707874-.0152638.00707874z" fill="#c5978d"/><path id="_446409136" d="m.635177.783461c-.0157559 0-.0254882-.0176732-.0166654-.0310394.0603031-.0911929.158602-.0845276.162783-.0842047.0259803.00202362.0234961.0415669-.00309449.0398819-.00361417-.00023622-.0794409-.00451575-.126331.0663858-.00384252.0058189-.0102047.00897638-.0166929.00897638z" fill="#c5978d"/><g fill="#7b6d79"><path id="_446409424" d="m.952594.381465c-.00955512 0-.018-.0068622-.0196772-.0165984-.00791732-.0457756-.0763425-.0412205-.0792717-.0410354-.0265197.0017874-.0291063-.0377992-.00311024-.039874.114661-.00914173.147799.0975079.102059.0975079z"/><path id="_446409496" d="m.952646.381465c-.0457008 0-.0126496-.106551.102079-.0975118.0261575.00206299.0232165.0416772-.00315354.0398701-.00323228-.00020866-.0713465-.0046378-.0792441.0410394-.0016811.00974016-.010122.0166024-.0196811.0166024z"/><path id="_446408728" d="m1.54735.703449c-.00955118 0-.0179961-.0068622-.0196772-.0165984-.00798425-.0461339-.0784409-.0410787-.0792047-.0410394-.0265591.00171654-.0292205-.0378031-.0031811-.0398701.114634-.00910236.147803.0975079.102063.0975079z"/><path id="_446408344" d="m1.54741.703449c-.0457323 0-.0125827-.106598.102079-.0974961.0262756.00208268.0230118.041874-.00315748.0398701-.00329134-.00025197-.0713268-.00462205-.0792441.0410551-.00168898.00970866-.0101339.0165709-.0196772.0165709z"/><path id="_446408632" d="m.120539.691071c-.00955512 0-.018-.0068622-.0196811-.0165984-.00792913-.0458031-.076315-.0412205-.0792677-.0410354-.0265236.00178346-.0290866-.0378307-.00311024-.039874.114713-.009.14778.0975079.102059.0975079z"/><path id="_446408440" d="m.120583.691071c-.0457008 0-.0126142-.106614.102087-.0975118.0261496.00207087.023185.0418701-.00315354.0398701-.00329134-.00025197-.0713465-.00462205-.0792441.0410394-.00169291.00973228-.0101496.0166024-.019689.0166024z"/></g><path id="_446408824" d="m.797307 1.01539c-.00612992.022874-.0269331.0388583-.0505748.0388583l-.193488.00000394.143874-.00000394.00011024-.166429c.00212598.00265354.00438189.00544094.00679528.00838583l.0279921-.070378c.00852362-.0214173.0670512-.00370472.0670433.0429921-.00000787.0224331.00187402.133035-.00175197.146571zm-.306398.0388661h-.0214961c-.00792913-.00000787-.0632008-.0350039-.0740118-.0413898-.00424016-.00250394-.00684252-.00705118-.00683858-.0119843l.00000394-.130425c.00000394-.0049685.00261417-.00948819.00684252-.0119882.0107835-.00637008.0660945-.0413819.0739882-.0413937h.0212559l.00025591.237181zm.15439-.193839c.00144488-.00151969.00279528-.00287402.00406299-.00405118-.00127165.0011811-.00261811.0025315-.00406299.00405118zm.00679921-.00641339c.00087402-.00068898.00171654-.00127559.00253543-.00177165-.0008189.00049213-.00166142.00108268-.00253543.00177165z" fill="#e6e9ee"/><path id="_446408464" d="m.415917 1.02989c-.00159055.00593307-.00700787.0103031-.0134291.0103031l-.0823661-.00000394c-.00769291 0-.0139213-.00622835-.0139134-.0139055v-.181213c-.00003937-.00772047.00623228-.0139213.0139094-.0139134l.082374-.00000787c.00769685-.00001181.0139055.00625591.0139094.0139055l-.00048425.184835z" fill="#5e5b68"/><path id="_446408152" d="m.697118 1.05424-.206209.00000787-.00025197-.237181.055563-.00000394c.0126339 0 .0137638.0117323.0154606.019622.0413504-.0257087.0337087-.0256614.0638386.045811.0386378-.0428189.031689-.0445197.0717087.00531102l-.00011024.166433z" fill="#40a0ff"/><g><path id="_446408752" d="m1.08384 1.0459c-.0922598.0532677-.106126-.109291-.123008-.132803-.0727835-.0772362-.0859094-.122154-.0891417-.155913-.00023228-.00244094.00073622-.00483858.00260236-.00643307l.038437-.0328071-.0350157-.00852756c-.0126654-.00308661.00177559-.0216417-.0149409-.0670197-.00126772-.00343307.00012205-.00727953.0032874-.0091063l.0515866-.0297874c.00316929-.00182677.00719291-.00111024.0095315.00170472.0197087.0236772.0395157.0340039.0604803.0449409.0421496.0219724.0857283.0446929.124925.17535.00722441.0161614.0475591.0454488.0664803.0754173.00199213.00316142.00136614.00730709-.00147244.00973228l-.029874.0254921.0424606.0103386c.0035748.00087008.00599606.00420472.0057126.00787008-.0016063.0209016-.0148071.0373819-.0391929.0489528-.020878.0109567-.0513307.0301693-.0728583.0425984z" fill="#e6e9ee"/><path id="_446407624" d="m.940657.607567-.0825669.0476732c-.00359449.0020748-.00819291.00084252-.0102638-.00275197l-.0232874-.0403307c-.0020748-.00359055-.00084252-.00818898.00275197-.0102638l.082563-.0476693c.00359055-.0020748.00818898-.00084252.0102638.00275197l.0232835.0403268c.00208268.00359449.00085039.00819291-.00274409.0102638z" fill="#5e5b68"/><path id="_446407960" d="m.964776.92098c-.00132283-.00336614-.00262205-.00605118-.00394094-.00788583-.0386417-.0410079-.0604685-.0729055-.0729252-.0988583l.175425-.101283c.016874.0246181.0334213.0597756.049252.112543.00099606.00222835.00262598.00470866.00474016.00740551l-.152551.0880787z" fill="#0cf"/></g><path id="_446407552" d="m1.68662 1.05728h-1.66202c-.0263228 0-.0263228-.0399961 0-.0399961h1.66202c.0263268 0 .0263268.0399961 0 .0399961z" fill="#7b6d79"/></g></g></svg>