<svg width="269" height="118" viewBox="0 0 269 118" fill="none" xmlns="http://www.w3.org/2000/svg">
<path fill-rule="evenodd" clip-rule="evenodd" d="M76.1 44.1H96.7V47.9H76.1V44.1Z" fill="#FAA61A"/>
<path fill-rule="evenodd" clip-rule="evenodd" d="M76.1 51H96.7L95.7 54.7H77.2L76.1 51Z" fill="#0DB14B"/>
<path fill-rule="evenodd" clip-rule="evenodd" d="M30.5 58.6C29.9 58.8 29.5 58.8 29.2 58.8C28.5 58.8 28.1 58.8 27.3 58.5V53.8H29.2H31H38.5V57.4C37.8 56.6 37 55.8 36.6 55.5C36.2 55.2 35.3 55 34.6 55C32.2 55.1 30.5 56.7 30.5 58.6ZM145.7 53.9V56H142.2C139.7 56 138.6 57.4 138.6 58.8C138.6 60.5 139.5 62 142.1 65.7L143.1 65C141.8 63.4 140.9 61.8 140.9 60.6C140.9 59.2 141.4 58.2 143.1 58.2H145.8V64.2L148.2 65.9V53.9H150.8L149.5 51.7H138H136.1H129.1H127.2H123.6H121.7H117.4H116.2H116.1L117.4 53.9H117.5H118.7H119.3V58.9H115.2L115.3 56C115.3 54.4 114.4 51.6 111.6 51.6C109.8 51.6 108.8 52.9 108.8 54.3C108.8 55.8 110 57.3 113 58L112.9 58.9H111.6C111.1 58.9 110.8 59.3 110.8 59.7C110.8 60.6 113.4 63.1 114.2 63.1C114.8 63.1 114.9 62.6 115 61.2H119.3V64.3L121.7 66V54H123H124.9V64.3L127.2 66V54H128.5H130.4H132.5V57.7C132.5 58 132.4 58.2 132.2 58.2C131.7 58.2 131.1 57.5 130.4 57.5C130 57.5 129.6 58.1 129.6 58.4C129.6 58.8 130.1 59.5 131 60.7L135.4 66.2L136.3 65.3C134.5 63.4 133.5 62.3 132.9 61.4C133.8 60.7 134.6 59.8 134.6 58.8V54.1H137.2H139.1H145.7V53.9ZM113.3 54.7L113.2 56.8C111.7 56.5 111 55.8 111 54.7C111 53.9 111.7 53 112.3 53C112.7 53.1 113.3 53.5 113.3 54.7ZM61.9 55.4V53.9H65.6L64.3 51.7H51H48.7H42.2H40.4H29.8H28H20L21.3 53.9H25V57.8C25 58 24.9 58.1 24.9 58.1C24.6 58.1 24 57.3 23.5 57.3C23.1 57.3 22.5 57.7 22.5 58.2C22.5 58.9 23.2 60.1 23.6 60.7L27.8 66.5L28.8 65.5C27.5 64 26.5 63 25.4 61.5C25.9 61.1 26.6 60.5 27.2 59.6C27.9 60.2 28.7 60.9 29.5 60.9C29.9 60.9 30.5 60.8 31.1 60.7C32 62.1 33.5 63.2 35.1 63.2C36.2 63.2 37.3 62.7 38.6 61.7V64.2L40.9 65.9V53.9H41.6H43.4H49.9H52.2H59.7V55.2C58.1 55.4 57.2 56.7 57.2 58C57.2 59.4 58.3 60.7 60.4 61.9C59.4 63.2 57.2 64.1 55.7 64.1C54.5 64.1 54.1 63.8 54.1 63.1C54.1 62.3 54.9 61.6 57.1 61.6L56.1 59.2C55.4 59.1 54.2 59.3 53.9 59.6C53.8 59.5 53.6 59.4 53.5 59.3L53.1 58.7C53.1 58.6 53.1 58.5 53.1 58.5C53.1 57.8 53.7 57.2 54.6 57.2C54.9 57.2 55.7 57.3 56.1 57.4L55 55.1C54.8 55 54.3 55 53.9 55C52.4 55 51.5 55.8 51.2 56.8L50.8 56H42.8L44.1 58.2H45.6C45.3 58.7 45.2 59.1 45.2 59.8C45.2 61.5 47.3 63.7 49.3 63.7C50 63.7 51 63.3 52.3 62.4C52.7 64 55 65.9 57.1 65.9C60 65.9 64 63 64 59C64 57.9 62.9 56.1 61.9 55.4ZM51.4 58.2C51.6 58.6 51.9 59.1 52.2 59.4C50.6 61 49.1 61.8 47.9 61.8C47.3 61.8 47 61.6 47 61C47 60.1 47.8 58.8 48.6 58.5C49.1 58.2 49.9 58.2 50.6 58.2H51.4ZM61 61C60.1 60.2 59.6 59.5 59.6 58.6C59.6 57.6 60.3 56.6 61.1 56.6C61.6 56.6 61.9 57 61.9 58.1C61.9 58.9 61.4 60.5 61 61ZM33.9 61.4C33.2 61.4 32.6 60.9 32.6 60C32.6 58.6 33.6 57.4 35 57.4C36.2 57.4 37.6 57.9 38.6 58.9V59.2C37.3 60.1 35 61.4 33.9 61.4Z" fill="white"/>
<path fill-rule="evenodd" clip-rule="evenodd" d="M15.9 109.8V104.7H17H18.4H23.6V107.8C23.1 106.9 22.8 106.5 22.4 106.2C22.1 106 21.3 105.8 20.9 105.8C19.1 105.8 18 107.1 18 108.5C18 110 20 111.7 21.6 111.7C22.2 111.7 23.2 111.2 23.7 110.8V112.6L25.5 113.9V109.9C25.9 109.4 27.5 108.4 28.1 108.4C28.4 108.4 28.7 108.7 28.7 109C28.7 109.5 28 111.1 27.4 112.2L29.1 113.4C29.7 112.6 30.1 111 30.1 110.2C30.1 108.3 28.8 106.8 27.5 106.8C27 106.8 26 107.2 25.6 107.6V104.6H31.5L30.5 102.9H17.5H16.1H7.20001L8.20001 104.6H9.60001V110.1C9.60001 110.5 9.70001 110.8 10.3 111.3C10.7 111.6 15.2 114.2 15.7 114.6C16 114.8 16.2 115.1 16.2 115.4C16.2 115.6 16 116 15.9 116.2L17.5 117.4C17.8 117.1 18.3 116.3 18.3 115.9C18.3 115.4 17.9 114.9 17.4 114.6L13 111.9C11.5 111 11.3 110.5 11.3 110V104.7H14V108.5C14 109.2 13.8 109.5 13.3 109.5C13 109.5 12.7 109.4 12.5 109.4L13.3 110.7C13.9 110.9 14.5 111 14.9 111C15.6 111.1 15.9 110.8 15.9 109.8ZM160.9 104.7H162.3V107.5C162.3 107.7 162.2 107.8 162.1 107.8C161.8 107.8 161.3 107.3 160.8 107.3C160.5 107.3 160.2 107.7 160.2 107.9C160.2 108.2 160.5 108.8 161.3 109.6L164.6 113.7L165.3 113C164 111.6 163.2 110.7 162.7 110.1C163.4 109.6 164 108.9 164 108.1V104.6H167.3L166.3 102.9H160H158.4H157.8C156.7 101.1 156 99.7 155.1 98.9C154.4 98.3 153.8 98.2 153.5 98.2C153 98.2 152.4 98.2 152.4 98.6C152.4 98.8 152.5 99 153.2 100.4C153.5 100.3 154 100.2 154.3 100.2C154.7 100.2 155 100.4 155.3 100.7C155.8 101.2 156.3 101.8 157 102.9H155.7H154.3H150.6L151.5 104.6H152.8V107.1C152.8 107.6 151.8 108.2 150.9 108.2C150.5 108.2 149.8 107.9 149.4 107.5C150.1 107 150.3 106.6 150.3 106.1C150.3 104.7 148.3 102.8 146.6 102.8C146.1 102.8 144.7 103.2 144 103.5L144.9 105.3C146.2 104.8 147.5 104.4 147.9 104.5C148.4 104.5 148.7 104.7 148.7 105.2C148.7 106.1 147.8 106.9 145.9 107.2C145.5 107.3 145.4 107.4 145.4 107.5C145.4 107.6 146 108.5 146.5 109C147.3 108.8 148.2 108.5 148.7 108.2C148.9 108.5 149.1 109.1 149.1 109.6C149.1 110.5 148.2 111.2 147 111.2C145.9 111.2 144.8 110.2 143.9 108.4L143.2 108.8C144.3 111.1 146.1 112.7 147.7 112.7C149.4 112.7 150.6 111.6 150.6 110.2C150.6 109.9 150.5 109.4 150.4 109.1V109C150.8 109.3 151.9 109.6 152.1 109.6C152.3 109.6 152.6 109.6 152.8 109.5V112.4L154.6 113.6V104.6H155.2H156.6H156.7V112.3L158.5 113.5V104.5H159.3H160.9V104.7ZM139.5 104.7L138.5 103H136.6C136.3 99.9 134.8 98.5 133 98.5C131.6 98.5 130.5 99.5 130.5 100.6C130.5 101.1 130.8 101.7 131.2 102.1L132.2 102C132.2 101.7 132.2 101.6 132.2 101.4C132.2 100.7 132.8 100.1 133.6 100.1C134.7 100.1 135.7 101.3 135.8 103.1H134.4H133H120.1L121.1 104.8H127.7V107.9C127.2 107 126.9 106.6 126.5 106.3C126.2 106.1 125.5 105.9 125 105.9C123.2 105.9 122.1 107.2 122.1 108.6C122.1 110.1 124.1 111.8 125.7 111.8C126.3 111.8 127.3 111.3 127.8 110.9V112.7L129.6 114V110C130 109.5 131.6 108.5 132.2 108.5C132.5 108.5 132.8 108.8 132.8 109.1C132.8 109.6 132.1 111.2 131.5 112.3L133.2 113.5C133.8 112.7 134.2 111.1 134.2 110.3C134.2 108.4 132.9 106.9 131.6 106.9C131.1 106.9 130.1 107.3 129.7 107.7V104.7H134.2H135.6V112.4L137.4 113.6V104.6H139.5V104.7ZM127.7 108.9C127.2 109.3 125.1 110.6 124.5 110.6C124.1 110.6 123.7 110.2 123.7 109.5C123.7 108.6 124.6 107.6 125.5 107.6C126.2 107.6 127.1 108 127.7 108.9ZM115.3 113.7V104.7H117.7L116.7 103H112.5H111.1H103.8H102.4H93.4H91.6H86.5H85.1H77H75.6H69.4L70.4 104.7H73.2V107.6C73.2 107.7 73.2 107.8 73.1 107.8C72.9 107.8 72.4 107.2 72 107.2C71.7 107.2 71.2 107.5 71.2 107.9C71.2 108.4 71.7 109.3 72.1 109.8L75.4 114.1L76.2 113.4C75.2 112.3 74.4 111.5 73.6 110.4C74 110.1 74.6 109.6 75 109C75.5 109.5 76.1 110 76.8 110C77.1 110 77.6 109.9 78 109.8C78.7 110.8 79.9 111.7 81.1 111.7C81.9 111.7 82.8 111.3 83.8 110.5V112.3L85.6 113.5V104.5H86.2H87.6H92.7H94.5H100.3V105.4C99 105.6 98.4 106.5 98.4 107.5C98.4 108.5 99.2 109.5 100.9 110.4C100.1 111.4 98.4 112.1 97.2 112.1C96.3 112.1 96 111.8 96 111.4C96 110.8 96.6 110.2 98.3 110.2L97.5 108.4C97 108.3 96.1 108.5 95.8 108.7C95.7 108.6 95.6 108.6 95.5 108.5L95.4 107.7C95.3 107.8 95.2 107.9 95.1 108C95.1 108 95.1 107.9 95.1 107.8C95.1 107.2 95.6 106.8 96.3 106.8C96.5 106.8 97.2 106.8 97.5 106.9L96.7 105.3C96.5 105.3 96.1 105.2 95.9 105.2C94.8 105.2 94 105.8 93.8 106.5L93.5 105.9H87.3L88.3 107.6H89.5C89.3 107.9 89.2 108.3 89.2 108.8C89.2 110.1 90.9 111.7 92.4 111.7C92.9 111.7 93.8 111.4 94.7 110.7C95 111.9 96.8 113.3 98.4 113.3C100.7 113.3 103.7 111.1 103.7 108.2C103.7 107.4 102.9 106.1 102.1 105.5V104.4H103.6H105H109.8V106H107.2C105.3 106 104.5 107.1 104.5 108.1C104.5 109.3 105.2 110.5 107.1 113.3L107.8 112.7C106.8 111.5 106.1 110.3 106.1 109.4C106.1 108.4 106.5 107.6 107.8 107.6H109.8V112.1L111.6 113.3V104.3H112.2H113.6H113.7V112L115.3 113.7ZM93.8 108C94 108.3 94.2 108.7 94.5 108.9C93.2 110.1 92.1 110.7 91.2 110.7C90.7 110.7 90.5 110.5 90.5 110.1C90.5 109.4 91.1 108.5 91.7 108.2C92.1 108 92.7 108 93.2 108H93.8ZM101.2 110C100.5 109.4 100.1 108.9 100.1 108.2C100.1 107.5 100.6 106.7 101.3 106.7C101.6 106.7 101.9 107 101.9 107.8C101.9 108.5 101.5 109.7 101.2 110ZM78 104.7H83.8V107.4C83.3 106.8 82.6 106.2 82.3 106C82 105.8 81.3 105.7 80.7 105.7C78.9 105.7 77.5 106.9 77.5 108.2C77.1 108.3 76.8 108.4 76.5 108.4C76 108.4 75.6 108.4 75 108.2V104.7H76.5H78ZM80.2 110.4C79.7 110.4 79.2 110 79.2 109.3C79.2 108.2 80 107.4 81 107.4C82 107.4 83 107.8 83.8 108.5V108.7C82.8 109.4 81 110.4 80.2 110.4ZM60 110.1H63.1V112.5L64.9 113.7V104.7H66.9L65.9 103H56.6H55.2H48.1H46.6H33.8L34.8 104.7H41.4V107.8H41.3C40.8 106.9 40.5 106.5 40.1 106.2C39.8 106 39.1 105.8 38.6 105.8C36.8 105.8 35.7 107.1 35.7 108.5C35.7 110 37.6 111.7 39.3 111.7C39.9 111.7 40.9 111.2 41.4 110.8V112.6L43.2 113.9V109.9C43.6 109.4 45.2 108.4 45.8 108.4C46.1 108.4 46.4 108.7 46.4 109C46.4 109.5 45.7 111.1 45.1 112.2L46.8 113.4C47.4 112.6 47.8 111 47.8 110.2C47.8 108.3 46.5 106.8 45.2 106.8C44.7 106.8 43.7 107.2 43.3 107.6V104.6H47.7H49.2H53.8V106.2H51.2C49.6 106.2 48.8 106.9 48.8 108.3C48.8 111.1 51 112.9 53.3 112.9C54 112.9 54.5 112.7 54.5 112.7L55.9 115.5L56.8 115L55.3 112.3C55.7 112 56 111.7 56 111.2C56 110.4 54.3 109.3 53.8 109.3C53.4 109.3 53.2 109.6 53.2 109.8C53.2 110.4 53.5 110.5 53.5 110.8C53.5 111 52.9 111.4 52.2 111.4C51.5 111.4 50.4 110.8 50.4 109.4C50.4 108.3 51.1 107.6 52 107.6H55.4C55.6 107.6 55.7 107.4 55.7 107.1V104.3H56.5H57.9H58.5V108H57.9C57.6 108 57.4 108.2 57.4 108.5C57.4 109.2 59.2 111.1 59.8 111.1C60.1 111.1 60.3 110.9 60.3 110.7V110.1H60ZM63.1 104.7V108.4H60V104.7H63.1ZM41.4 108.9C40.9 109.3 38.8 110.6 38.2 110.6C37.8 110.6 37.4 110.2 37.4 109.5C37.4 108.6 38.3 107.6 39.2 107.6C39.9 107.6 40.8 108 41.4 108.9ZM23.6 108.9C23.1 109.3 21 110.6 20.4 110.6C20 110.6 19.6 110.2 19.6 109.5C19.6 108.6 20.5 107.6 21.4 107.6C22.1 107.6 23 108 23.6 108.9Z" fill="white"/>
<path fill-rule="evenodd" clip-rule="evenodd" d="M42.1 19.2C62.8 19.2 79.5 36 79.5 56.6C79.5 77.3 62.8 94 42.1 94C21.4 94 4.70001 77.3 4.70001 56.6C4.70001 36 21.4 19.2 42.1 19.2ZM42.1 22.5C60.9 22.5 76.2 37.7 76.2 56.6C76.2 75.4 61 90.7 42.1 90.7C23.3 90.7 8.00001 75.4 8.00001 56.6C8.00001 37.8 23.3 22.5 42.1 22.5Z" fill="white"/>
<path fill-rule="evenodd" clip-rule="evenodd" d="M130.6 19.2C151.3 19.2 168 36 168 56.6C168 77.3 151.2 94 130.6 94C109.9 94 93.2 77.2 93.2 56.6C93.1 36 109.9 19.2 130.6 19.2ZM130.6 22.5C149.4 22.5 164.7 37.7 164.7 56.6C164.7 75.4 149.4 90.7 130.6 90.7C111.8 90.7 96.5 75.4 96.5 56.6C96.5 37.8 111.7 22.5 130.6 22.5Z" fill="white"/>
<path fill-rule="evenodd" clip-rule="evenodd" d="M3.2 54.7C1 55.7 -0.399995 52.6 2 51.5L15 45.6L97 7.5L104.6 4.2C113.7 0.800003 122.7 -1.7 130.7 2.1C143.1 8.4 141.2 26.9 130.8 35.6C128.9 37.2 126.8 34.8 128.4 33.1C144.3 16.3 134.5 -4.1 108.1 6.5C106.4 7.2 105 7.7 103.4 8.4C73.3 22 43.4 36 13.4 50L3.2 54.7Z" fill="white"/>
<path fill-rule="evenodd" clip-rule="evenodd" d="M163.1 54.8C161 55.8 159.5 52.7 161.9 51.6L226.5 21.7L234.1 18.4C243.2 15 251.9 12.1 259.9 15.9C272.3 22.2 270.4 40.7 260 49.4C258.1 51 256 48.6 257.6 46.9C273.4 29.8 263.7 9.4 237.6 20.8C236 21.5 234.5 22 232.9 22.7C209.5 33.3 186.2 43.7 163.1 54.8Z" fill="white"/>
</svg>
