<svg width="629" height="592" viewBox="0 0 629 592" fill="none" xmlns="http://www.w3.org/2000/svg">
<path d="M196.859 164.432C196.859 164.432 252.608 -1.28886 310.575 3.28753C368.543 7.86391 425.123 164.432 425.123 164.432C425.123 164.432 598.471 160.549 617.609 225.589C636.746 290.629 493.908 378.273 493.908 378.273C493.908 378.273 546.605 523.331 502.367 569.233C458.129 615.136 310.714 511.127 310.714 511.127C310.714 511.127 190.896 594.75 131.958 580.882C73.158 566.876 115.871 381.324 124.33 379.105C132.79 376.748 -3.94707 291.322 3.68023 230.997C11.3075 170.672 144.993 162.906 196.859 164.432Z" fill="#FFFE9F"/>
<path d="M508.053 381.463C538.839 361.216 643.958 286.884 626.345 226.976C612.894 181.212 532.322 167.205 477.96 163.184C459.932 161.797 444.538 161.381 434.969 161.242C433.028 160.826 431.502 159.439 430.809 157.498C418.189 124.77 367.988 4.53563 314.042 0.375288C313.349 0.375288 312.655 0.23661 311.962 0.23661C311.685 0.23661 311.268 0.0979321 310.991 0.0979321C255.381 -4.20109 204.209 134.338 195.333 159.578C194.501 160.41 193.531 160.826 192.421 161.103C163.021 160.687 9.36597 162.213 0.629239 230.304C0.490561 231.275 0.490551 232.107 0.351873 233.077V233.216C-5.61129 280.644 65.6693 338.195 104.083 368.982C108.382 372.449 112.82 376.055 116.287 378.828C117.535 379.938 118.367 381.463 118.367 383.127C112.543 396.718 105.747 427.227 101.726 458.707C99.5068 475.348 97.704 494.902 98.12 514.039C98.8134 558.971 110.74 584.488 133.344 589.896C138.337 591.006 143.606 591.561 149.154 591.561C203.793 591.561 285.752 539.972 310.02 523.886C312.101 522.499 314.735 522.499 316.816 523.886C340.668 539.834 419.437 589.758 472.829 589.758C487.667 589.758 500.426 585.875 509.578 576.445C549.795 534.841 516.651 421.541 505.695 388.258C504.725 385.901 505.695 382.988 508.053 381.463ZM500.148 567.015C492.521 574.919 481.565 577.97 468.668 577.831C421.656 575.474 347.879 531.097 316.954 509.324C315.567 508.354 313.765 508.076 312.101 508.354L310.714 507.383L308.911 508.631C307.801 509.463 202.961 581.992 143.19 579.218C140.694 578.941 138.337 578.663 136.118 578.109C127.52 576.029 121.141 569.233 116.703 557.168C98.6747 508.076 123.359 399.491 130.709 387.288C132.096 386.317 133.067 384.93 133.483 383.266C134.592 377.996 131.541 375.639 111.849 359.691C78.0117 332.371 7.42447 275.652 12.5556 234.88C18.7961 186.204 127.797 171.643 199.494 173.723C202.129 173.862 204.625 172.059 205.457 169.563C220.573 124.77 269.249 9.11202 312.933 12.579C357.31 16.0459 406.818 127.127 422.211 169.701C423.043 172.198 425.401 173.723 428.036 173.723C474.909 172.614 599.858 180.796 614.419 230.442C615.667 234.603 616.083 238.902 615.944 243.201C609.427 302.832 493.492 374.806 492.244 375.639L490.163 376.887L490.995 379.106C490.441 380.492 490.441 382.018 490.857 383.405C491.273 384.375 518.454 460.51 516.651 517.784C515.819 538.031 510.965 555.782 500.148 567.015Z" fill="#493B4E"/>
<path d="M164.686 232.384C164.27 232.8 163.992 233.493 163.853 234.048C163.021 238.208 159.971 253.74 164.686 251.938C170.094 249.857 220.712 185.095 289.08 184.956C347.463 184.817 381.856 216.575 390.731 226.005C391.979 227.391 392.118 229.749 391.008 231.274L369.791 259.426C367.988 261.784 369.513 265.667 372.287 265.667L428.174 263.864C429.838 263.864 431.086 262.2 431.225 260.258L431.918 195.218C431.918 191.89 428.59 190.226 426.649 192.445L405.57 216.297C404.46 217.545 402.796 217.684 401.548 216.575C391.147 207.283 343.164 166.928 284.226 167.621C221.544 168.315 170.649 225.311 164.686 232.384Z" fill="#493B4E"/>
<path d="M431.78 266.637L363.689 268.718C362.025 268.718 361.054 266.36 362.163 264.973L388.235 230.304C388.928 229.333 388.928 227.946 388.096 227.114C378.111 216.991 344.274 187.729 288.941 187.868C233.609 188.007 189.648 231.413 173.145 247.777C168.43 252.492 166.627 254.156 165.379 254.711C163.853 255.266 162.328 254.988 161.219 253.74C158.306 250.412 159.832 240.15 161.635 232.245L161.773 231.552L162.189 230.997C162.744 230.304 217.245 165.402 284.088 164.57C342.055 163.877 390.038 202.707 402.103 213.385C402.796 214.078 403.905 213.94 404.46 213.246L431.086 183.014C432.335 181.628 434.276 182.737 434.276 184.679L433.444 264.28C433.583 265.667 432.751 266.637 431.78 266.637ZM375.06 262.616L426.926 260.952C427.897 260.952 428.729 259.981 428.729 258.733L429.422 198.546C429.422 196.605 427.481 195.495 426.233 196.882L403.767 222.26L402.103 220.596C401.548 220.041 349.266 169.563 284.226 170.395C223.485 171.088 173.422 226.282 166.627 234.187C166.35 234.464 166.211 234.741 166.211 235.157C165.102 240.566 164.408 246.113 164.686 248.609C165.934 247.638 168.153 245.42 170.233 243.339C187.151 226.559 232.083 182.321 289.219 182.044C357.864 181.905 393.505 224.757 395.03 226.559L396.694 228.501L373.812 258.871C372.426 260.258 373.396 262.616 375.06 262.616ZM173.7 395.192L171.342 453.992C171.203 458.845 175.918 461.896 179.247 458.845L201.158 438.876C202.822 437.35 204.902 437.212 206.705 438.598C220.018 448.306 277.986 488.661 324.72 489.909C372.703 491.157 442.874 441.511 455.91 432.081C457.297 431.11 458.129 429.446 458.129 427.643C458.406 422.65 458.822 413.22 457.99 413.22C456.881 413.22 389.622 473.268 321.392 472.575C266.198 472.02 230.142 441.788 218.354 430.278C215.997 428.059 215.996 423.898 218.215 421.541L238.878 399.907C242.207 396.44 240.127 389.784 235.689 389.784H178.692C175.918 389.784 173.838 392.141 173.7 395.192Z" fill="#493B4E"/>
</svg>
